<svg width="130" height="28" viewBox="0 0 130 28" fill="none" xmlns="http://www.w3.org/2000/svg">
<path d="M18.5 20.5L22 24M21 13.5C21 8.25329 16.7467 4 11.5 4C6.25329 4 2 8.25329 2 13.5C2 18.7467 6.25329 23 11.5 23C16.7467 23 21 18.7467 21 13.5Z" stroke="#141718" stroke-width="1.5" stroke-linecap="round" stroke-linejoin="round"/>
<path d="M58.5588 21.5488C57.5654 18.8918 55.0036 17 52 17C48.9964 17 46.4346 18.8918 45.4412 21.5488M58.5588 21.5488C60.6672 19.7154 62 17.0134 62 14C62 8.47715 57.5228 4 52 4C46.4772 4 42 8.47715 42 14C42 17.0134 43.3328 19.7154 45.4412 21.5488M58.5588 21.5488C56.8031 23.0756 54.5095 24 52 24C49.4905 24 47.1969 23.0756 45.4412 21.5488M55 11C55 12.6569 53.6569 14 52 14C50.3431 14 49 12.6569 49 11C49 9.34315 50.3431 8 52 8C53.6569 8 55 9.34315 55 11Z" stroke="#141718" stroke-width="1.5" stroke-linejoin="round"/>
<g clip-path="url(#clip0_210_2446)">
<circle cx="120" cy="14" r="10" fill="#141718"/>
<path d="M116.928 18V16.6705L120.035 13.794C120.299 13.5384 120.52 13.3082 120.699 13.1037C120.881 12.8991 121.019 12.6989 121.113 12.5028C121.206 12.304 121.253 12.0895 121.253 11.8594C121.253 11.6037 121.195 11.3835 121.079 11.1989C120.962 11.0114 120.803 10.8679 120.601 10.7685C120.4 10.6662 120.171 10.6151 119.915 10.6151C119.648 10.6151 119.415 10.669 119.216 10.777C119.018 10.8849 118.864 11.0398 118.756 11.2415C118.648 11.4432 118.594 11.6832 118.594 11.9616H116.843C116.843 11.3906 116.972 10.8949 117.231 10.4744C117.489 10.054 117.851 9.72869 118.317 9.49858C118.783 9.26847 119.32 9.15341 119.928 9.15341C120.553 9.15341 121.097 9.2642 121.56 9.4858C122.026 9.70455 122.388 10.0085 122.647 10.3977C122.905 10.7869 123.035 11.233 123.035 11.7358C123.035 12.0653 122.969 12.3906 122.839 12.7116C122.711 13.0327 122.482 13.3892 122.153 13.7812C121.823 14.1705 121.358 14.6378 120.759 15.1832L119.485 16.4318V16.4915H123.15V18H116.928Z" fill="white"/>
</g>
<path d="M90 8L90 9C90 10.6569 91.3431 12 93 12C94.6569 12 96 10.6569 96 9V8" stroke="#141718" stroke-width="1.5" stroke-linecap="round" stroke-linejoin="round"/>
<path d="M96.6115 5H89.3885C87.4332 5 85.7644 6.41365 85.4429 8.3424L83.7763 18.3424C83.3699 20.7805 85.2501 23 87.7218 23H98.2782C100.75 23 102.63 20.7805 102.224 18.3424L100.557 8.3424C100.236 6.41365 98.5669 5 96.6115 5Z" stroke="#141718" stroke-width="1.5" stroke-linejoin="round"/>
<defs>
<clipPath id="clip0_210_2446">
<rect width="20" height="20" fill="white" transform="translate(110 4)"/>
</clipPath>
</defs>
</svg>
