<svg width="30" height="28" viewBox="0 0 30 28" fill="none" xmlns="http://www.w3.org/2000/svg">
<g filter="url(#filter0_d_208_529)">
<path d="M24.0181 12.8356L23.7727 13.5444H23.7727L24.0181 12.8356ZM24.0181 7.16437L24.2635 7.8731V7.8731L24.0181 7.16437ZM5.98189 12.8356L6.22727 13.5444H6.22727L5.98189 12.8356ZM5.98189 7.16437L5.73652 7.8731L5.73652 7.8731L5.98189 7.16437ZM18.5303 7.53033C18.8232 7.23744 18.8232 6.76256 18.5303 6.46967C18.2374 6.17678 17.7626 6.17678 17.4697 6.46967L18.5303 7.53033ZM11.4697 12.4697C11.1768 12.7626 11.1768 13.2374 11.4697 13.5303C11.7626 13.8232 12.2374 13.8232 12.5303 13.5303L11.4697 12.4697ZM9 18.25C7.20507 18.25 5.75 16.7949 5.75 15H4.25C4.25 17.6234 6.37665 19.75 9 19.75V18.25ZM24.25 15C24.25 16.7949 22.7949 18.25 21 18.25V19.75C23.6234 19.75 25.75 17.6234 25.75 15H24.25ZM21 1.75C22.7949 1.75 24.25 3.20507 24.25 5H25.75C25.75 2.37665 23.6234 0.25 21 0.25V1.75ZM9 0.25C6.37665 0.25 4.25 2.37665 4.25 5H5.75C5.75 3.20507 7.20507 1.75 9 1.75V0.25ZM24.2635 12.1269C23.3815 11.8216 22.75 10.9836 22.75 10H21.25C21.25 11.6424 22.3054 13.0363 23.7727 13.5444L24.2635 12.1269ZM22.75 10C22.75 9.01644 23.3815 8.17844 24.2635 7.8731L23.7727 6.45565C22.3054 6.96367 21.25 8.35761 21.25 10H22.75ZM7.25 10C7.25 10.9836 6.61845 11.8216 5.73652 12.1269L6.22727 13.5444C7.69461 13.0363 8.75 11.6424 8.75 10H7.25ZM5.73652 7.8731C6.61845 8.17844 7.25 9.01644 7.25 10H8.75C8.75 8.35762 7.69462 6.96367 6.22727 6.45565L5.73652 7.8731ZM25.75 6V5H24.25V6H25.75ZM24.25 14V15H25.75V14H24.25ZM4.25 14V15H5.75V14H4.25ZM5.75 6V5H4.25V6H5.75ZM21 18.25H9V19.75H21V18.25ZM21 0.25H9V1.75H21V0.25ZM5.73652 12.1269C5.05785 12.3619 4.25 12.9975 4.25 14H5.75C5.75 13.9441 5.77081 13.8708 5.85172 13.7813C5.9366 13.6873 6.06974 13.5989 6.22727 13.5444L5.73652 12.1269ZM24.2635 7.8731C24.9422 7.63813 25.75 7.00246 25.75 6H24.25C24.25 6.05587 24.2292 6.12917 24.1483 6.21871C24.0634 6.31265 23.9303 6.40111 23.7727 6.45565L24.2635 7.8731ZM6.22727 6.45565C6.06974 6.40111 5.9366 6.31265 5.85172 6.21871C5.77081 6.12917 5.75 6.05587 5.75 6H4.25C4.25 7.00246 5.05785 7.63813 5.73652 7.8731L6.22727 6.45565ZM23.7727 13.5444C23.9303 13.5989 24.0634 13.6873 24.1483 13.7813C24.2292 13.8708 24.25 13.9441 24.25 14H25.75C25.75 12.9975 24.9422 12.3619 24.2635 12.1269L23.7727 13.5444ZM12.25 7C12.25 7.13807 12.1381 7.25 12 7.25V8.75C12.9665 8.75 13.75 7.9665 13.75 7H12.25ZM12 7.25C11.8619 7.25 11.75 7.13807 11.75 7H10.25C10.25 7.9665 11.0335 8.75 12 8.75V7.25ZM11.75 7C11.75 6.86193 11.8619 6.75 12 6.75V5.25C11.0335 5.25 10.25 6.0335 10.25 7H11.75ZM12 6.75C12.1381 6.75 12.25 6.86193 12.25 7H13.75C13.75 6.0335 12.9665 5.25 12 5.25V6.75ZM18.25 13C18.25 13.1381 18.1381 13.25 18 13.25V14.75C18.9665 14.75 19.75 13.9665 19.75 13H18.25ZM18 13.25C17.8619 13.25 17.75 13.1381 17.75 13H16.25C16.25 13.9665 17.0335 14.75 18 14.75V13.25ZM17.75 13C17.75 12.8619 17.8619 12.75 18 12.75V11.25C17.0335 11.25 16.25 12.0335 16.25 13H17.75ZM18 12.75C18.1381 12.75 18.25 12.8619 18.25 13H19.75C19.75 12.0335 18.9665 11.25 18 11.25V12.75ZM17.4697 6.46967L11.4697 12.4697L12.5303 13.5303L18.5303 7.53033L17.4697 6.46967Z" fill="#141718"/>
</g>
<defs>
<filter id="filter0_d_208_529" x="0.25" y="0.25" width="29.5" height="27.5" filterUnits="userSpaceOnUse" color-interpolation-filters="sRGB">
<feFlood flood-opacity="0" result="BackgroundImageFix"/>
<feColorMatrix in="SourceAlpha" type="matrix" values="0 0 0 0 0 0 0 0 0 0 0 0 0 0 0 0 0 0 127 0" result="hardAlpha"/>
<feOffset dy="4"/>
<feGaussianBlur stdDeviation="2"/>
<feComposite in2="hardAlpha" operator="out"/>
<feColorMatrix type="matrix" values="0 0 0 0 0 0 0 0 0 0 0 0 0 0 0 0 0 0 0.25 0"/>
<feBlend mode="normal" in2="BackgroundImageFix" result="effect1_dropShadow_208_529"/>
<feBlend mode="normal" in="SourceGraphic" in2="effect1_dropShadow_208_529" result="shape"/>
</filter>
</defs>
</svg>
